<?xml version="1.0" standalone="no"?>
<!DOCTYPE svg PUBLIC "-//W3C//DTD SVG 20010904//EN"
 "http://www.w3.org/TR/2001/REC-SVG-20010904/DTD/svg10.dtd">
<svg version="1.0" xmlns="http://www.w3.org/2000/svg"
 width="311.000000pt" height="311.000000pt" viewBox="0 0 311.000000 311.000000"
 preserveAspectRatio="xMidYMid meet">
<metadata>
Created by potrace 1.14, written by Peter Selinger 2001-2017
</metadata>
<g transform="translate(0.000000,311.000000) scale(0.100000,-0.100000)"
fill="#000000" stroke="none">
<path d="M777 2434 c-1 -1 -18 -5 -37 -7 -19 -3 -35 -6 -35 -7 0 -1 -11 -3
-25 -6 -40 -7 -144 -47 -152 -58 -4 -6 -8 -7 -8 -3 0 5 -21 -3 -47 -18 -111
-64 -218 -160 -295 -263 -40 -54 -112 -182 -103 -182 3 0 -1 -13 -10 -30 -9
-16 -13 -30 -9 -30 4 0 2 -6 -4 -12 -9 -12 -13 -29 -28 -108 -10 -56 -12 -223
-3 -242 6 -10 5 -19 -1 -23 -6 -4 -7 -12 -3 -18 4 -7 9 -20 10 -29 2 -10 4
-26 6 -35 1 -10 6 -23 9 -29 7 -10 19 -58 20 -81 1 -7 5 -13 10 -13 4 0 7 -3
6 -7 -4 -15 13 -53 23 -53 6 0 8 -4 5 -9 -3 -5 3 -19 13 -32 10 -13 24 -36 32
-50 35 -65 209 -249 236 -249 7 0 16 -6 19 -14 3 -8 19 -19 35 -25 16 -5 29
-15 29 -22 0 -6 7 -9 15 -5 8 3 15 2 15 -2 0 -9 74 -42 93 -42 8 0 17 -3 21
-7 3 -4 12 -8 19 -9 7 -2 23 -6 37 -9 14 -3 39 -8 57 -10 18 -2 37 -6 43 -10
13 -8 203 -8 255 0 22 3 55 11 73 17 18 5 36 7 39 4 4 -3 11 -2 17 3 6 5 29
14 50 21 44 14 155 71 201 103 42 30 55 49 48 71 -6 21 -154 166 -183 180 -19
8 -25 6 -120 -46 -42 -23 -78 -36 -125 -46 -34 -7 -238 -5 -270 2 -16 4 -36 8
-42 8 -7 1 -13 5 -13 10 0 4 -6 8 -14 8 -17 0 -88 39 -98 55 -4 5 -8 7 -8 3 0
-15 -102 80 -142 132 -47 63 -86 146 -104 225 -8 32 -12 205 -5 205 3 0 6 10
7 23 3 87 69 211 159 301 80 81 159 125 270 152 75 17 187 20 256 5 112 -24
200 -75 308 -180 39 -38 71 -67 71 -64 0 2 12 -10 28 -28 33 -41 677 -684 719
-719 35 -30 44 -32 103 -32 60 0 89 6 147 33 26 12 52 23 56 23 12 1 37 37 37
54 0 11 -884 901 -1006 1013 -158 144 -374 220 -617 217 -48 -1 -88 -2 -90 -4z"/>
<path d="M2098 2434 c-3 -2 -22 -6 -43 -9 -56 -7 -143 -33 -205 -63 -30 -14
-57 -26 -60 -26 -3 -1 -35 -21 -72 -46 -51 -33 -68 -50 -68 -67 0 -13 5 -23
10 -23 6 0 10 -7 10 -16 0 -8 4 -13 9 -9 5 3 12 -4 16 -15 3 -11 10 -20 15
-20 4 0 32 -24 63 -54 66 -65 88 -74 125 -50 75 51 146 79 222 90 88 13 124
11 235 -10 38 -8 135 -47 149 -62 8 -8 18 -14 23 -14 4 0 37 -25 71 -55 35
-30 61 -55 57 -55 -3 0 5 -11 19 -25 27 -27 93 -155 101 -195 23 -113 21 -225
-5 -307 -14 -45 -60 -143 -75 -160 -31 -37 -35 -43 -31 -43 8 0 -56 -62 -99
-96 -40 -31 -155 -97 -155 -89 0 3 -12 0 -27 -6 -46 -18 -64 -20 -153 -23 -47
-1 -110 4 -140 11 -30 7 -62 15 -71 17 -9 2 -48 24 -87 47 -53 32 -135 105
-314 281 -133 131 -245 238 -249 238 -4 0 -11 9 -14 20 -3 11 -10 20 -15 20
-12 0 -78 68 -72 75 3 3 0 5 -6 5 -6 0 -47 37 -89 81 -236 247 -244 253 -328
243 -90 -12 -156 -37 -206 -79 -22 -18 -25 -25 -16 -41 13 -25 136 -144 148
-144 5 0 9 -4 9 -8 0 -15 37 -52 44 -45 3 3 6 -2 6 -12 0 -10 3 -16 6 -13 5 6
54 -38 55 -50 0 -4 20 -23 43 -42 24 -19 41 -38 39 -42 -2 -5 4 -8 13 -8 10 0
15 -2 12 -5 -5 -6 152 -165 164 -165 4 0 8 -4 8 -9 0 -9 376 -389 456 -462 42
-38 138 -105 189 -132 157 -83 376 -110 585 -72 19 4 40 11 46 16 6 5 13 6 16
3 3 -3 33 6 66 19 33 14 63 22 66 19 3 -3 6 0 6 6 0 7 5 12 11 12 24 0 156 96
224 163 109 108 170 205 219 348 36 104 41 143 40 294 -1 125 -14 205 -46 283
-6 15 -13 36 -15 47 -2 11 -8 22 -13 23 -6 2 -10 10 -10 18 0 16 -29 65 -45
76 -5 4 -6 8 -2 8 11 0 -55 85 -111 143 -46 49 -168 145 -187 148 -5 0 -21 9
-35 19 -14 9 -43 23 -65 31 -22 7 -44 16 -50 20 -5 4 -37 13 -70 20 -33 7 -67
14 -75 17 -20 5 -268 11 -272 6z"/>
</g>
</svg>
